<svg width="1632" height="689" viewBox="0 0 1632 689" fill="none" xmlns="http://www.w3.org/2000/svg">
<path d="M358.17 577.605C500.169 549.299 592.832 408.692 565.137 263.553C537.443 118.413 399.879 23.7016 257.879 52.0085C115.88 80.3154 23.2179 220.922 50.9124 366.061C78.6068 511.201 216.171 605.912 358.17 577.605Z" stroke="#2396BF" stroke-opacity="0.91" stroke-width="7.5" stroke-dasharray="100 100"/>
<path d="M308.025 579.631C451.118 579.631 567.118 461.065 567.118 314.807C567.118 168.549 451.118 49.9832 308.025 49.9832C164.931 49.9832 48.9307 168.549 48.9307 314.807C48.9307 461.065 164.931 579.631 308.025 579.631Z" fill="url(#paint0_linear_337_272)" stroke="#2396BF" stroke-opacity="0.91" stroke-width="2.5"/>
<path d="M538.203 196.002L624.663 146.256H828.503" stroke="url(#paint1_linear_337_272)" stroke-width="2.5"/>
<path d="M830.22 150.938C832.75 150.938 834.801 148.842 834.801 146.256C834.801 143.67 832.75 141.574 830.22 141.574C827.69 141.574 825.64 143.67 825.64 146.256C825.64 148.842 827.69 150.938 830.22 150.938Z" fill="#093848"/>
<path d="M1217.29 179.03C1219.82 179.03 1221.87 176.934 1221.87 174.348C1221.87 171.762 1219.82 169.666 1217.29 169.666C1214.76 169.666 1212.71 171.762 1212.71 174.348C1212.71 176.934 1214.76 179.03 1217.29 179.03Z" fill="#0E5F7B"/>
<path d="M1384.48 39.7414C1387.01 39.7414 1389.06 37.6452 1389.06 35.0594C1389.06 32.4736 1387.01 30.3774 1384.48 30.3774C1381.95 30.3774 1379.9 32.4736 1379.9 35.0594C1379.9 37.6452 1381.95 39.7414 1384.48 39.7414Z" fill="#0C4B62"/>
<path d="M1469.22 112.312C1471.75 112.312 1473.8 110.215 1473.8 107.63C1473.8 105.044 1471.75 102.948 1469.22 102.948C1466.69 102.948 1464.64 105.044 1464.64 107.63C1464.64 110.215 1466.69 112.312 1469.22 112.312Z" fill="#0D526A"/>
<path d="M1601.49 271.499C1603.07 271.499 1604.35 270.189 1604.35 268.572C1604.35 266.956 1603.07 265.646 1601.49 265.646C1599.91 265.646 1598.63 266.956 1598.63 268.572C1598.63 270.189 1599.91 271.499 1601.49 271.499Z" fill="#0D526A"/>
<path d="M1479.53 205.951C1481.43 205.951 1482.96 204.379 1482.96 202.44C1482.96 200.5 1481.43 198.928 1479.53 198.928C1477.63 198.928 1476.09 200.5 1476.09 202.44C1476.09 204.379 1477.63 205.951 1479.53 205.951Z" fill="#0D526A"/>
<path d="M1445.75 155.62C1447.33 155.62 1448.61 154.31 1448.61 152.694C1448.61 151.078 1447.33 149.768 1445.75 149.768C1444.17 149.768 1442.88 151.078 1442.88 152.694C1442.88 154.31 1444.17 155.62 1445.75 155.62Z" fill="#0D526A"/>
<path d="M1628.97 331.194C1630.56 331.194 1631.84 329.884 1631.84 328.268C1631.84 326.651 1630.56 325.341 1628.97 325.341C1627.39 325.341 1626.11 326.651 1626.11 328.268C1626.11 329.884 1627.39 331.194 1628.97 331.194Z" fill="#0D526A"/>
<path d="M1329.51 243.407C1331.41 243.407 1332.95 241.835 1332.95 239.895C1332.95 237.956 1331.41 236.384 1329.51 236.384C1327.62 236.384 1326.08 237.956 1326.08 239.895C1326.08 241.835 1327.62 243.407 1329.51 243.407Z" fill="#0D526A"/>
<path d="M1628.97 342.899C1630.56 342.899 1631.84 341.588 1631.84 339.972C1631.84 338.356 1630.56 337.046 1628.97 337.046C1627.39 337.046 1626.11 338.356 1626.11 339.972C1626.11 341.588 1627.39 342.899 1628.97 342.899Z" fill="#0D526A"/>
<path d="M1628.97 354.603C1630.56 354.603 1631.84 353.293 1631.84 351.677C1631.84 350.061 1630.56 348.751 1628.97 348.751C1627.39 348.751 1626.11 350.061 1626.11 351.677C1626.11 353.293 1627.39 354.603 1628.97 354.603Z" fill="#0D526A"/>
<path d="M1627.83 378.013C1629.41 378.013 1630.69 376.703 1630.69 375.087C1630.69 373.471 1629.41 372.161 1627.83 372.161C1626.25 372.161 1624.97 373.471 1624.97 375.087C1624.97 376.703 1626.25 378.013 1627.83 378.013Z" fill="#0D526A"/>
<path d="M861.712 331.194C863.293 331.194 864.575 329.884 864.575 328.268C864.575 326.651 863.293 325.341 861.712 325.341C860.131 325.341 858.849 326.651 858.849 328.268C858.849 329.884 860.131 331.194 861.712 331.194Z" fill="#0E559D"/>
<path d="M861.712 342.899C863.293 342.899 864.575 341.588 864.575 339.972C864.575 338.356 863.293 337.046 861.712 337.046C860.131 337.046 858.849 338.356 858.849 339.972C858.849 341.588 860.131 342.899 861.712 342.899Z" fill="#0E559D"/>
<path d="M861.712 354.603C863.293 354.603 864.575 353.293 864.575 351.677C864.575 350.061 863.293 348.751 861.712 348.751C860.131 348.751 858.849 350.061 858.849 351.677C858.849 353.293 860.131 354.603 861.712 354.603Z" fill="#0E559D"/>
<path d="M860.567 378.013C862.148 378.013 863.43 376.703 863.43 375.087C863.43 373.471 862.148 372.161 860.567 372.161C858.986 372.161 857.704 373.471 857.704 375.087C857.704 376.703 858.986 378.013 860.567 378.013Z" fill="#0E559D"/>
<path d="M897.785 157.961C900.315 157.961 902.366 155.865 902.366 153.279C902.366 150.693 900.315 148.597 897.785 148.597C895.255 148.597 893.204 150.693 893.204 153.279C893.204 155.865 895.255 157.961 897.785 157.961Z" fill="#093848"/>
<path d="M495.832 131.625H558.244L623.518 203.025H806.172L827.358 174.348H884.043L897.785 153.279" stroke="url(#paint2_linear_337_272)" stroke-width="2.5"/>
<path d="M847.398 173.763L888.052 107.63H1090.75L1118.23 154.45H1196.1L1215.57 173.763" stroke="url(#paint3_linear_337_272)" stroke-width="2.5"/>
<path d="M952.753 107.63L983.1 163.813H1050.09" stroke="url(#paint4_linear_337_272)" stroke-width="2.5"/>
<path d="M1050.09 168.495C1052.62 168.495 1054.67 166.399 1054.67 163.813C1054.67 161.228 1052.62 159.131 1050.09 159.131C1047.56 159.131 1045.51 161.228 1045.51 163.813C1045.51 166.399 1047.56 168.495 1050.09 168.495Z" fill="#0D526A"/>
<path d="M1328.37 340.558C1330.9 340.558 1332.95 338.461 1332.95 335.876C1332.95 333.29 1330.9 331.194 1328.37 331.194C1325.84 331.194 1323.79 333.29 1323.79 335.876C1323.79 338.461 1325.84 340.558 1328.37 340.558Z" fill="#25677E"/>
<path d="M1277.98 292.568C1280.51 292.568 1282.56 290.471 1282.56 287.886C1282.56 285.3 1280.51 283.204 1277.98 283.204C1275.45 283.204 1273.4 285.3 1273.4 287.886C1273.4 290.471 1275.45 292.568 1277.98 292.568Z" fill="#10617E"/>
<path d="M1250.5 366.308C1253.03 366.308 1255.08 364.212 1255.08 361.626C1255.08 359.041 1253.03 356.944 1250.5 356.944C1247.97 356.944 1245.92 359.041 1245.92 361.626C1245.92 364.212 1247.97 366.308 1250.5 366.308Z" fill="#186B87"/>
<path d="M1045.51 107.045L1127.39 71.93H1355.28L1383.91 36.23" stroke="url(#paint5_linear_337_272)" stroke-width="2.5"/>
<path d="M565.687 339.972L626.953 253.941H868.011L889.196 287.885H1014.02H1006.58" stroke="url(#paint6_linear_337_272)" stroke-width="2.5"/>
<path d="M1010.58 287.885H1277.98" stroke="url(#paint7_linear_337_272)" stroke-width="2.5"/>
<path d="M1009.19 286.462L1049.21 360.563L1134.53 361.324L1156.51 334.012L1328.28 335.545" stroke="url(#paint8_linear_337_272)" stroke-width="2.5"/>
<path d="M1134.84 361.11L1250.5 362.142" stroke="url(#paint9_linear_337_272)" stroke-width="2.5"/>
<path d="M566.26 352.263H886.906L928.132 413.713H1058.68L1089.03 457.022H1316.92L1351.27 413.713H1468.65" stroke="url(#paint10_linear_337_272)" stroke-width="2.5"/>
<path d="M1469.22 417.81C1471.75 417.81 1473.8 415.714 1473.8 413.128C1473.8 410.542 1471.75 408.446 1469.22 408.446C1466.69 408.446 1464.64 410.542 1464.64 413.128C1464.64 415.714 1466.69 417.81 1469.22 417.81Z" fill="#0D526A"/>
<path d="M1032.92 472.823C1035.44 472.823 1037.5 470.727 1037.5 468.141C1037.5 465.555 1035.44 463.459 1032.92 463.459C1030.39 463.459 1028.33 465.555 1028.33 468.141C1028.33 470.727 1030.39 472.823 1032.92 472.823Z" fill="#0D526A"/>
<path d="M1488.69 616.794C1491.22 616.794 1493.27 614.697 1493.27 612.112C1493.27 609.526 1491.22 607.43 1488.69 607.43C1486.16 607.43 1484.11 609.526 1484.11 612.112C1484.11 614.697 1486.16 616.794 1488.69 616.794Z" fill="#0D526A"/>
<path d="M1244.77 646.056C1247.3 646.056 1249.35 643.96 1249.35 641.374C1249.35 638.788 1247.3 636.692 1244.77 636.692C1242.24 636.692 1240.19 638.788 1240.19 641.374C1240.19 643.96 1242.24 646.056 1244.77 646.056Z" fill="#0D526A"/>
<path d="M1385.63 688.194C1388.16 688.194 1390.21 686.097 1390.21 683.512C1390.21 680.926 1388.16 678.83 1385.63 678.83C1383.1 678.83 1381.04 680.926 1381.04 683.512C1381.04 686.097 1383.1 688.194 1385.63 688.194Z" fill="#157292"/>
<path d="M1113.08 589.872C1115.61 589.872 1117.66 587.776 1117.66 585.19C1117.66 582.604 1115.61 580.508 1113.08 580.508C1110.55 580.508 1108.5 582.604 1108.5 585.19C1108.5 587.776 1110.55 589.872 1113.08 589.872Z" fill="#0D526A"/>
<path d="M1437.16 567.633C1439.69 567.633 1441.74 565.537 1441.74 562.951C1441.74 560.365 1439.69 558.269 1437.16 558.269C1434.63 558.269 1432.58 560.365 1432.58 562.951C1432.58 565.537 1434.63 567.633 1437.16 567.633Z" fill="#2F7891"/>
<path d="M1344.4 513.79C1346.93 513.79 1348.98 511.694 1348.98 509.108C1348.98 506.522 1346.93 504.426 1344.4 504.426C1341.87 504.426 1339.82 506.522 1339.82 509.108C1339.82 511.694 1341.87 513.79 1344.4 513.79Z" fill="#0D526A"/>
<path d="M565.114 371.576H635.541L668.751 418.981H779.26L803.308 379.769H853.696L904.656 468.141H988.253H1030.62" stroke="url(#paint11_linear_337_272)" stroke-width="2.5"/>
<path d="M555.953 386.792L655.583 455.851H799.301L839.382 509.108H977.374L1017.46 564.707H1122.81L1158.31 509.108H1342.11" stroke="url(#paint12_linear_337_272)" stroke-width="2.5"/>
<path d="M1122.81 563.536H1436.59" stroke="url(#paint13_linear_337_272)" stroke-width="2.5"/>
<path d="M1311.19 563.536L1348.41 612.697H1486.4" stroke="url(#paint14_linear_337_272)" stroke-width="2.5"/>
<path d="M462.622 526.08L577.711 448.243H612.639L674.478 526.08H859.995H945.31L993.979 584.605H1109.07" stroke="url(#paint15_linear_337_272)" stroke-width="2.5"/>
<path d="M643.558 541.882L689.937 595.14H909.809L940.156 640.789H1200.11H1242.48" stroke="url(#paint16_linear_337_272)" stroke-width="2.5"/>
<path d="M1097.04 640.203L1151.44 683.512H1383.34" stroke="url(#paint17_linear_337_272)" stroke-width="2.5"/>
<path d="M652.719 283.203H838.809L854.269 307.784H957.334L965.35 327.097H1065.55L1082.16 307.784H1429.71L1467.51 268.572H1601.49" stroke="url(#paint18_linear_337_272)"/>
<path d="M1624.39 470.482C1625.97 470.482 1627.26 469.172 1627.26 467.556C1627.26 465.94 1625.97 464.63 1624.39 464.63C1622.81 464.63 1621.53 465.94 1621.53 467.556C1621.53 469.172 1622.81 470.482 1624.39 470.482Z" fill="#0D526A"/>
<path d="M675.623 482.187H861.713L877.172 506.767H980.237L988.253 526.08H1088.46L1105.06 506.767H1452.62L1490.41 467.556H1624.39" stroke="url(#paint19_linear_337_272)"/>
<path d="M700.817 228.776H860.568L888.052 195.417H925.842L947.6 175.518H1044.37L1068.99 195.417H1153.73L1164.61 175.518H1203.54H1328.94L1347.26 202.44H1477.24" stroke="url(#paint20_linear_337_272)"/>
<path d="M1399.37 557.099C1401.27 557.099 1402.8 555.526 1402.8 553.587C1402.8 551.648 1401.27 550.076 1399.37 550.076C1397.47 550.076 1395.93 551.648 1395.93 553.587C1395.93 555.526 1397.47 557.099 1399.37 557.099Z" fill="#0D526A"/>
<path d="M620.656 579.923H780.406L807.89 546.564H845.681L867.439 526.666H964.205L988.826 546.564H1073.57L1084.45 526.666H1123.38H1248.78L1267.1 553.587H1397.08" stroke="url(#paint21_linear_337_272)"/>
<path d="M1048.95 179.03H1130.23L1144.23 146.037H1163.45L1174.53 126.358H1223.76L1236.3 146.037H1279.41L1284.94 126.358H1304.75H1368.56L1377.9 152.983H1444.03" stroke="url(#paint22_linear_337_272)"/>
<path d="M861.14 328.267H943.019L987.108 370.405H1233.89L1261.95 391.474H1402.8L1451.47 350.507H1570L1592.33 328.267H1627.26" stroke="url(#paint23_linear_337_272)"/>
<path d="M861.14 339.972H943.019L987.108 382.11H1233.89L1261.95 403.179H1402.8L1451.47 362.212H1570L1592.33 339.972H1627.26" stroke="url(#paint24_linear_337_272)"/>
<path d="M861.14 351.677H943.019L987.108 393.815H1233.89L1261.95 414.884H1402.8L1451.47 373.917H1570L1592.33 351.677H1627.26" stroke="url(#paint25_linear_337_272)"/>
<path d="M861.14 375.087H943.019L987.108 417.225H1233.89L1261.95 438.293H1402.8L1451.47 397.326H1570L1592.33 375.087H1627.26" stroke="url(#paint26_linear_337_272)"/>
<path d="M807.317 242.822H906.947L922.979 216.486H977.375L996.842 196.587H1034.06L1065.55 230.531H1266.53L1284.28 216.486H1317.49" stroke="url(#paint27_linear_337_272)"/>
<path d="M818.769 266.231H918.398L934.431 239.895H988.826L1008.29 219.997H1045.51L1077 253.941H1277.98L1295.73 239.895H1328.94" stroke="url(#paint28_linear_337_272)"/>
<path d="M1054.1 67.833H954.47L938.438 94.1691H884.043L864.575 114.067H827.357L795.865 80.1232H594.888L577.138 94.1691H543.928" stroke="url(#paint29_linear_337_272)"/>
<path d="M542.21 97.0954C543.791 97.0954 545.073 95.7853 545.073 94.1691C545.073 92.553 543.791 91.2429 542.21 91.2429C540.629 91.2429 539.347 92.553 539.347 94.1691C539.347 95.7853 540.629 97.0954 542.21 97.0954Z" fill="#0E559D"/>
<path d="M1318.06 219.997C1319.96 219.997 1321.5 218.425 1321.5 216.486C1321.5 214.546 1319.96 212.974 1318.06 212.974C1316.16 212.974 1314.63 214.546 1314.63 216.486C1314.63 218.425 1316.16 219.997 1318.06 219.997Z" fill="#0D526A"/>
<path d="M817.623 270.328C819.52 270.328 821.058 268.756 821.058 266.817C821.058 264.877 819.52 263.305 817.623 263.305C815.726 263.305 814.188 264.877 814.188 266.817C814.188 268.756 815.726 270.328 817.623 270.328Z" fill="#0E559D"/>
<path d="M806.173 246.918C808.07 246.918 809.608 245.346 809.608 243.407C809.608 241.468 808.07 239.896 806.173 239.896C804.275 239.896 802.737 241.468 802.737 243.407C802.737 245.346 804.275 246.918 806.173 246.918Z" fill="#0E559D"/>
<path d="M1056.96 71.3445C1058.86 71.3445 1060.4 69.7723 1060.4 67.833C1060.4 65.8937 1058.86 64.3215 1056.96 64.3215C1055.07 64.3215 1053.53 65.8937 1053.53 67.833C1053.53 69.7723 1055.07 71.3445 1056.96 71.3445Z" fill="#0D5270"/>
<path d="M1086.74 107.63H1468.65" stroke="url(#paint30_linear_337_272)" stroke-width="2.5"/>
<defs>
<linearGradient id="paint0_linear_337_272" x1="147.017" y1="115.099" x2="497.833" y2="500.983" gradientUnits="userSpaceOnUse">
<stop stop-opacity="0.33"/>
<stop offset="1" stop-color="#262626" stop-opacity="0"/>
</linearGradient>
<linearGradient id="paint1_linear_337_272" x1="827.93" y1="146.256" x2="537.854" y2="194.491" gradientUnits="userSpaceOnUse">
<stop stop-color="#093747"/>
<stop offset="1" stop-color="#339EC4"/>
</linearGradient>
<linearGradient id="paint2_linear_337_272" x1="896.995" y1="131.625" x2="494.598" y2="196.173" gradientUnits="userSpaceOnUse">
<stop stop-color="#093747"/>
<stop offset="1" stop-color="#339EC4"/>
</linearGradient>
<linearGradient id="paint3_linear_337_272" x1="1214.85" y1="107.63" x2="846.064" y2="166.13" gradientUnits="userSpaceOnUse">
<stop stop-color="#0F617E"/>
<stop offset="1" stop-color="#0F4558"/>
</linearGradient>
<linearGradient id="paint4_linear_337_272" x1="1043.22" y1="163.813" x2="991.398" y2="82.6038" gradientUnits="userSpaceOnUse">
<stop stop-color="#0D526A"/>
<stop offset="1" stop-color="#0F4D64"/>
</linearGradient>
<linearGradient id="paint5_linear_337_272" x1="1360.02" y1="107.045" x2="1328.4" y2="-29.674" gradientUnits="userSpaceOnUse">
<stop stop-color="#0D526A"/>
<stop offset="1" stop-color="#0B4357"/>
</linearGradient>
<linearGradient id="paint6_linear_337_272" x1="1055.82" y1="228.19" x2="905.423" y2="52.7522" gradientUnits="userSpaceOnUse">
<stop stop-color="#0D526A"/>
<stop offset="1" stop-color="#339EC4"/>
</linearGradient>
<linearGradient id="paint7_linear_337_272" x1="-nan" y1="-nan" x2="-nan" y2="-nan" gradientUnits="userSpaceOnUse">
<stop stop-color="#116784"/>
<stop offset="1" stop-color="#0D526A"/>
</linearGradient>
<linearGradient id="paint8_linear_337_272" x1="1344.97" y1="329.438" x2="1273.98" y2="186.454" gradientUnits="userSpaceOnUse">
<stop stop-color="#27687F"/>
<stop offset="1" stop-color="#0D526A"/>
</linearGradient>
<linearGradient id="paint9_linear_337_272" x1="1250.36" y1="362.141" x2="1250.26" y2="358.958" gradientUnits="userSpaceOnUse">
<stop stop-color="#186B87"/>
<stop offset="1" stop-color="#1C5F76"/>
</linearGradient>
<linearGradient id="paint10_linear_337_272" x1="1467.6" y1="352.263" x2="1362.95" y2="112.733" gradientUnits="userSpaceOnUse">
<stop stop-color="#0D526A"/>
<stop offset="1" stop-color="#339EC4"/>
</linearGradient>
<linearGradient id="paint11_linear_337_272" x1="1030.09" y1="371.576" x2="902.547" y2="208.202" gradientUnits="userSpaceOnUse">
<stop stop-color="#0D526A"/>
<stop offset="1" stop-color="#339EC4"/>
</linearGradient>
<linearGradient id="paint12_linear_337_272" x1="1341.19" y1="386.792" x2="1102.06" y2="106.01" gradientUnits="userSpaceOnUse">
<stop stop-color="#0D526A"/>
<stop offset="1" stop-color="#339EC4"/>
</linearGradient>
<linearGradient id="paint13_linear_337_272" x1="-nan" y1="-nan" x2="-nan" y2="-nan" gradientUnits="userSpaceOnUse">
<stop stop-color="#307891"/>
<stop offset="1" stop-color="#0E546C"/>
</linearGradient>
<linearGradient id="paint14_linear_337_272" x1="1494.99" y1="567.633" x2="1448.65" y2="485.609" gradientUnits="userSpaceOnUse">
<stop stop-color="#0D526A"/>
<stop offset="1" stop-color="#145A73"/>
</linearGradient>
<linearGradient id="paint15_linear_337_272" x1="1108.31" y1="448.243" x2="927.507" y2="220.474" gradientUnits="userSpaceOnUse">
<stop stop-color="#0D526A"/>
<stop offset="1" stop-color="#339EC4"/>
</linearGradient>
<linearGradient id="paint16_linear_337_272" x1="1241.78" y1="541.882" x2="1121.04" y2="347.606" gradientUnits="userSpaceOnUse">
<stop stop-color="#0D526A"/>
<stop offset="1" stop-color="#0E559D"/>
</linearGradient>
<linearGradient id="paint17_linear_337_272" x1="1383" y1="640.203" x2="1342.69" y2="523.484" gradientUnits="userSpaceOnUse">
<stop stop-color="#157292"/>
<stop offset="1" stop-color="#0D526A"/>
</linearGradient>
<linearGradient id="paint18_linear_337_272" x1="1600.38" y1="268.572" x2="1573.11" y2="114.869" gradientUnits="userSpaceOnUse">
<stop stop-color="#0D526A"/>
<stop offset="1" stop-color="#0C6D90"/>
</linearGradient>
<linearGradient id="paint19_linear_337_272" x1="1623.28" y1="467.556" x2="1588.19" y2="316.349" gradientUnits="userSpaceOnUse">
<stop stop-color="#0D526A"/>
<stop offset="1" stop-color="#0E559D"/>
</linearGradient>
<linearGradient id="paint20_linear_337_272" x1="1476.33" y1="175.518" x2="1441.24" y2="39.5638" gradientUnits="userSpaceOnUse">
<stop stop-color="#0D526A"/>
<stop offset="1" stop-color="#0E559D"/>
</linearGradient>
<linearGradient id="paint21_linear_337_272" x1="1396.17" y1="526.666" x2="1361.08" y2="390.711" gradientUnits="userSpaceOnUse">
<stop stop-color="#0D526A"/>
<stop offset="1" stop-color="#0E559D"/>
</linearGradient>
<linearGradient id="paint22_linear_337_272" x1="1443.57" y1="126.358" x2="1386.08" y2="11.7795" gradientUnits="userSpaceOnUse">
<stop stop-color="#0D526A"/>
<stop offset="1" stop-color="#0E559D"/>
</linearGradient>
<linearGradient id="paint23_linear_337_272" x1="1626.36" y1="328.267" x2="1577.63" y2="171.295" gradientUnits="userSpaceOnUse">
<stop stop-color="#0D526A"/>
<stop offset="1" stop-color="#0E559D"/>
</linearGradient>
<linearGradient id="paint24_linear_337_272" x1="1626.36" y1="339.972" x2="1577.63" y2="183" gradientUnits="userSpaceOnUse">
<stop stop-color="#0D526A"/>
<stop offset="1" stop-color="#0E559D"/>
</linearGradient>
<linearGradient id="paint25_linear_337_272" x1="1626.36" y1="351.677" x2="1577.63" y2="194.705" gradientUnits="userSpaceOnUse">
<stop stop-color="#0D526A"/>
<stop offset="1" stop-color="#0E559D"/>
</linearGradient>
<linearGradient id="paint26_linear_337_272" x1="1626.36" y1="375.087" x2="1577.63" y2="218.114" gradientUnits="userSpaceOnUse">
<stop stop-color="#0D526A"/>
<stop offset="1" stop-color="#0E559D"/>
</linearGradient>
<linearGradient id="paint27_linear_337_272" x1="1316.89" y1="196.587" x2="1278.43" y2="83.8133" gradientUnits="userSpaceOnUse">
<stop stop-color="#0D526A"/>
<stop offset="1" stop-color="#0E559D"/>
</linearGradient>
<linearGradient id="paint28_linear_337_272" x1="1328.35" y1="219.997" x2="1289.89" y2="107.223" gradientUnits="userSpaceOnUse">
<stop stop-color="#0D526A"/>
<stop offset="1" stop-color="#0E559D"/>
</linearGradient>
<linearGradient id="paint29_linear_337_272" x1="1068.41" y1="78.3674" x2="1036.52" y2="-40.7191" gradientUnits="userSpaceOnUse">
<stop stop-color="#0D526A"/>
<stop offset="1" stop-color="#0E559D"/>
</linearGradient>
<linearGradient id="paint30_linear_337_272" x1="-nan" y1="-nan" x2="-nan" y2="-nan" gradientUnits="userSpaceOnUse">
<stop stop-color="#0D526A"/>
<stop offset="1" stop-color="#0F5770"/>
</linearGradient>
</defs>
</svg>
