<svg width="2647" height="689" viewBox="0 0 2647 689" fill="none" xmlns="http://www.w3.org/2000/svg">
<path d="M1373.17 577.605C1515.17 549.299 1607.83 408.692 1580.14 263.553C1552.44 118.413 1414.88 23.7016 1272.88 52.0085C1130.88 80.3154 1038.22 220.922 1065.91 366.061C1093.61 511.201 1231.17 605.912 1373.17 577.605Z" stroke="#2396BF" stroke-opacity="0.91" stroke-width="7.5" stroke-dasharray="100 100"/>
<path d="M1323.02 579.631C1466.12 579.631 1582.12 461.065 1582.12 314.807C1582.12 168.549 1466.12 49.9832 1323.02 49.9832C1179.93 49.9832 1063.93 168.549 1063.93 314.807C1063.93 461.065 1179.93 579.631 1323.02 579.631Z" fill="url(#paint0_linear_337_272)" stroke="#2396BF" stroke-opacity="0.91" stroke-width="2.5"/>
<path d="M1553.2 196.002L1639.66 146.256H1843.5" stroke="url(#paint1_linear_337_272)" stroke-width="2.5"/>
<path d="M1845.22 150.938C1847.75 150.938 1849.8 148.842 1849.8 146.256C1849.8 143.67 1847.75 141.574 1845.22 141.574C1842.69 141.574 1840.64 143.67 1840.64 146.256C1840.64 148.842 1842.69 150.938 1845.22 150.938Z" fill="#093848"/>
<path d="M2232.29 179.03C2234.82 179.03 2236.87 176.934 2236.87 174.348C2236.87 171.762 2234.82 169.666 2232.29 169.666C2229.76 169.666 2227.71 171.762 2227.71 174.348C2227.71 176.934 2229.76 179.03 2232.29 179.03Z" fill="#0E5F7B"/>
<path d="M2399.48 39.7414C2402.01 39.7414 2404.06 37.6452 2404.06 35.0594C2404.06 32.4736 2402.01 30.3774 2399.48 30.3774C2396.95 30.3774 2394.9 32.4736 2394.9 35.0594C2394.9 37.6452 2396.95 39.7414 2399.48 39.7414Z" fill="#0C4B62"/>
<path d="M2484.22 112.312C2486.75 112.312 2488.8 110.215 2488.8 107.63C2488.8 105.044 2486.75 102.948 2484.22 102.948C2481.69 102.948 2479.64 105.044 2479.64 107.63C2479.64 110.215 2481.69 112.312 2484.22 112.312Z" fill="#0D526A"/>
<path d="M2616.49 271.499C2618.07 271.499 2619.35 270.189 2619.35 268.572C2619.35 266.956 2618.07 265.646 2616.49 265.646C2614.91 265.646 2613.63 266.956 2613.63 268.572C2613.63 270.189 2614.91 271.499 2616.49 271.499Z" fill="#0D526A"/>
<path d="M2494.53 205.951C2496.43 205.951 2497.96 204.379 2497.96 202.44C2497.96 200.5 2496.43 198.928 2494.53 198.928C2492.63 198.928 2491.09 200.5 2491.09 202.44C2491.09 204.379 2492.63 205.951 2494.53 205.951Z" fill="#0D526A"/>
<path d="M2460.75 155.62C2462.33 155.62 2463.61 154.31 2463.61 152.694C2463.61 151.078 2462.33 149.768 2460.75 149.768C2459.17 149.768 2457.88 151.078 2457.88 152.694C2457.88 154.31 2459.17 155.62 2460.75 155.62Z" fill="#0D526A"/>
<path d="M2643.97 331.194C2645.56 331.194 2646.84 329.884 2646.84 328.268C2646.84 326.651 2645.56 325.341 2643.97 325.341C2642.39 325.341 2641.11 326.651 2641.11 328.268C2641.11 329.884 2642.39 331.194 2643.97 331.194Z" fill="#0D526A"/>
<path d="M2344.51 243.407C2346.41 243.407 2347.95 241.835 2347.95 239.895C2347.95 237.956 2346.41 236.384 2344.51 236.384C2342.62 236.384 2341.08 237.956 2341.08 239.895C2341.08 241.835 2342.62 243.407 2344.51 243.407Z" fill="#0D526A"/>
<path d="M2643.97 342.899C2645.56 342.899 2646.84 341.588 2646.84 339.972C2646.84 338.356 2645.56 337.046 2643.97 337.046C2642.39 337.046 2641.11 338.356 2641.11 339.972C2641.11 341.588 2642.39 342.899 2643.97 342.899Z" fill="#0D526A"/>
<path d="M2643.97 354.603C2645.56 354.603 2646.84 353.293 2646.84 351.677C2646.84 350.061 2645.56 348.751 2643.97 348.751C2642.39 348.751 2641.11 350.061 2641.11 351.677C2641.11 353.293 2642.39 354.603 2643.97 354.603Z" fill="#0D526A"/>
<path d="M2642.83 378.013C2644.41 378.013 2645.69 376.703 2645.69 375.087C2645.69 373.471 2644.41 372.161 2642.83 372.161C2641.25 372.161 2639.97 373.471 2639.97 375.087C2639.97 376.703 2641.25 378.013 2642.83 378.013Z" fill="#0D526A"/>
<path d="M1876.71 331.194C1878.29 331.194 1879.57 329.884 1879.57 328.268C1879.57 326.651 1878.29 325.341 1876.71 325.341C1875.13 325.341 1873.85 326.651 1873.85 328.268C1873.85 329.884 1875.13 331.194 1876.71 331.194Z" fill="#0E559D"/>
<path d="M1876.71 342.899C1878.29 342.899 1879.57 341.588 1879.57 339.972C1879.57 338.356 1878.29 337.046 1876.71 337.046C1875.13 337.046 1873.85 338.356 1873.85 339.972C1873.85 341.588 1875.13 342.899 1876.71 342.899Z" fill="#0E559D"/>
<path d="M1876.71 354.603C1878.29 354.603 1879.57 353.293 1879.57 351.677C1879.57 350.061 1878.29 348.751 1876.71 348.751C1875.13 348.751 1873.85 350.061 1873.85 351.677C1873.85 353.293 1875.13 354.603 1876.71 354.603Z" fill="#0E559D"/>
<path d="M1875.57 378.013C1877.15 378.013 1878.43 376.703 1878.43 375.087C1878.43 373.471 1877.15 372.161 1875.57 372.161C1873.99 372.161 1872.7 373.471 1872.7 375.087C1872.7 376.703 1873.99 378.013 1875.57 378.013Z" fill="#0E559D"/>
<path d="M1912.79 157.961C1915.31 157.961 1917.37 155.865 1917.37 153.279C1917.37 150.693 1915.31 148.597 1912.79 148.597C1910.26 148.597 1908.2 150.693 1908.2 153.279C1908.2 155.865 1910.26 157.961 1912.79 157.961Z" fill="#093848"/>
<path d="M1510.83 131.625H1573.24L1638.52 203.025H1821.17L1842.36 174.348H1899.04L1912.79 153.279" stroke="url(#paint2_linear_337_272)" stroke-width="2.5"/>
<path d="M1862.4 173.763L1903.05 107.63H2105.75L2133.23 154.45H2211.1L2230.57 173.763" stroke="url(#paint3_linear_337_272)" stroke-width="2.5"/>
<path d="M1967.75 107.63L1998.1 163.813H2065.09" stroke="url(#paint4_linear_337_272)" stroke-width="2.5"/>
<path d="M2065.09 168.495C2067.62 168.495 2069.67 166.399 2069.67 163.813C2069.67 161.228 2067.62 159.131 2065.09 159.131C2062.56 159.131 2060.51 161.228 2060.51 163.813C2060.51 166.399 2062.56 168.495 2065.09 168.495Z" fill="#0D526A"/>
<path d="M2343.37 340.558C2345.9 340.558 2347.95 338.461 2347.95 335.876C2347.95 333.29 2345.9 331.194 2343.37 331.194C2340.84 331.194 2338.79 333.29 2338.79 335.876C2338.79 338.461 2340.84 340.558 2343.37 340.558Z" fill="#25677E"/>
<path d="M2292.98 292.568C2295.51 292.568 2297.56 290.471 2297.56 287.886C2297.56 285.3 2295.51 283.204 2292.98 283.204C2290.45 283.204 2288.4 285.3 2288.4 287.886C2288.4 290.471 2290.45 292.568 2292.98 292.568Z" fill="#10617E"/>
<path d="M2265.5 366.308C2268.03 366.308 2270.08 364.212 2270.08 361.626C2270.08 359.041 2268.03 356.944 2265.5 356.944C2262.97 356.944 2260.92 359.041 2260.92 361.626C2260.92 364.212 2262.97 366.308 2265.5 366.308Z" fill="#186B87"/>
<path d="M2060.51 107.045L2142.39 71.93H2370.28L2398.91 36.23" stroke="url(#paint5_linear_337_272)" stroke-width="2.5"/>
<path d="M1580.69 339.972L1641.95 253.941H1883.01L1904.2 287.885H2029.02H2021.58" stroke="url(#paint6_linear_337_272)" stroke-width="2.5"/>
<path d="M2025.58 287.885H2292.98" stroke="url(#paint7_linear_337_272)" stroke-width="2.5"/>
<path d="M2024.19 286.462L2064.21 360.563L2149.53 361.324L2171.51 334.012L2343.28 335.545" stroke="url(#paint8_linear_337_272)" stroke-width="2.5"/>
<path d="M2149.84 361.11L2265.5 362.142" stroke="url(#paint9_linear_337_272)" stroke-width="2.5"/>
<path d="M1581.26 352.263H1901.91L1943.13 413.713H2073.68L2104.03 457.022H2331.92L2366.27 413.713H2483.65" stroke="url(#paint10_linear_337_272)" stroke-width="2.5"/>
<path d="M2484.22 417.81C2486.75 417.81 2488.8 415.714 2488.8 413.128C2488.8 410.542 2486.75 408.446 2484.22 408.446C2481.69 408.446 2479.64 410.542 2479.64 413.128C2479.64 415.714 2481.69 417.81 2484.22 417.81Z" fill="#0D526A"/>
<path d="M2047.92 472.823C2050.44 472.823 2052.5 470.727 2052.5 468.141C2052.5 465.555 2050.44 463.459 2047.92 463.459C2045.39 463.459 2043.33 465.555 2043.33 468.141C2043.33 470.727 2045.39 472.823 2047.92 472.823Z" fill="#0D526A"/>
<path d="M4.58066 368.364C7.1105 368.364 9.16133 366.268 9.16133 363.682C9.16133 361.096 7.1105 359 4.58066 359C2.05083 359 0 361.096 0 363.682C0 366.268 2.05083 368.364 4.58066 368.364Z" fill="#0D526A"/>
<path d="M2503.69 616.794C2506.22 616.794 2508.27 614.697 2508.27 612.112C2508.27 609.526 2506.22 607.43 2503.69 607.43C2501.16 607.43 2499.11 609.526 2499.11 612.112C2499.11 614.697 2501.16 616.794 2503.69 616.794Z" fill="#0D526A"/>
<path d="M2259.77 646.056C2262.3 646.056 2264.35 643.96 2264.35 641.374C2264.35 638.788 2262.3 636.692 2259.77 636.692C2257.24 636.692 2255.19 638.788 2255.19 641.374C2255.19 643.96 2257.24 646.056 2259.77 646.056Z" fill="#0D526A"/>
<path d="M2400.63 688.194C2403.16 688.194 2405.21 686.097 2405.21 683.512C2405.21 680.926 2403.16 678.83 2400.63 678.83C2398.1 678.83 2396.04 680.926 2396.04 683.512C2396.04 686.097 2398.1 688.194 2400.63 688.194Z" fill="#157292"/>
<path d="M2128.08 589.872C2130.61 589.872 2132.66 587.776 2132.66 585.19C2132.66 582.604 2130.61 580.508 2128.08 580.508C2125.55 580.508 2123.5 582.604 2123.5 585.19C2123.5 587.776 2125.55 589.872 2128.08 589.872Z" fill="#0D526A"/>
<path d="M2452.16 567.633C2454.69 567.633 2456.74 565.537 2456.74 562.951C2456.74 560.365 2454.69 558.269 2452.16 558.269C2449.63 558.269 2447.58 560.365 2447.58 562.951C2447.58 565.537 2449.63 567.633 2452.16 567.633Z" fill="#2F7891"/>
<path d="M2359.4 513.79C2361.93 513.79 2363.98 511.694 2363.98 509.108C2363.98 506.522 2361.93 504.426 2359.4 504.426C2356.87 504.426 2354.82 506.522 2354.82 509.108C2354.82 511.694 2356.87 513.79 2359.4 513.79Z" fill="#0D526A"/>
<path d="M1580.11 371.576H1650.54L1683.75 418.981H1794.26L1818.31 379.769H1868.7L1919.66 468.141H2003.25H2045.62" stroke="url(#paint11_linear_337_272)" stroke-width="2.5"/>
<path d="M1570.95 386.792L1670.58 455.851H1814.3L1854.38 509.108H1992.37L2032.46 564.707H2137.81L2173.31 509.108H2357.11" stroke="url(#paint12_linear_337_272)" stroke-width="2.5"/>
<path d="M2137.81 563.536H2451.59" stroke="url(#paint13_linear_337_272)" stroke-width="2.5"/>
<path d="M2326.19 563.536L2363.41 612.697H2501.4" stroke="url(#paint14_linear_337_272)" stroke-width="2.5"/>
<path d="M1477.62 526.08L1592.71 448.243H1627.64L1689.48 526.08H1874.99H1960.31L2008.98 584.605H2124.07" stroke="url(#paint15_linear_337_272)" stroke-width="2.5"/>
<path d="M1658.56 541.882L1704.94 595.14H1924.81L1955.16 640.789H2215.11H2257.48" stroke="url(#paint16_linear_337_272)" stroke-width="2.5"/>
<path d="M2112.04 640.203L2166.44 683.512H2398.34" stroke="url(#paint17_linear_337_272)" stroke-width="2.5"/>
<path d="M1667.72 283.203H1853.81L1869.27 307.784H1972.33L1980.35 327.097H2080.55L2097.16 307.784H2444.71L2482.51 268.572H2616.49" stroke="url(#paint18_linear_337_272)"/>
<path d="M2639.39 470.482C2640.97 470.482 2642.26 469.172 2642.26 467.556C2642.26 465.94 2640.97 464.63 2639.39 464.63C2637.81 464.63 2636.53 465.94 2636.53 467.556C2636.53 469.172 2637.81 470.482 2639.39 470.482Z" fill="#0D526A"/>
<path d="M1690.62 482.187H1876.71L1892.17 506.767H1995.24L2003.25 526.08H2103.46L2120.06 506.767H2467.62L2505.41 467.556H2639.39" stroke="url(#paint19_linear_337_272)"/>
<path d="M1715.82 228.776H1875.57L1903.05 195.417H1940.84L1962.6 175.518H2059.37L2083.99 195.417H2168.73L2179.61 175.518H2218.54H2343.94L2362.26 202.44H2492.24" stroke="url(#paint20_linear_337_272)"/>
<path d="M2414.37 557.099C2416.27 557.099 2417.8 555.526 2417.8 553.587C2417.8 551.648 2416.27 550.076 2414.37 550.076C2412.47 550.076 2410.93 551.648 2410.93 553.587C2410.93 555.526 2412.47 557.099 2414.37 557.099Z" fill="#0D526A"/>
<path d="M1635.66 579.923H1795.41L1822.89 546.564H1860.68L1882.44 526.666H1979.21L2003.83 546.564H2088.57L2099.45 526.666H2138.38H2263.78L2282.1 553.587H2412.08" stroke="url(#paint21_linear_337_272)"/>
<path d="M2063.95 179.03H2145.23L2159.23 146.037H2178.45L2189.53 126.358H2238.76L2251.3 146.037H2294.41L2299.94 126.358H2319.75H2383.56L2392.9 152.983H2459.03" stroke="url(#paint22_linear_337_272)"/>
<path d="M1876.14 328.267H1958.02L2002.11 370.405H2248.89L2276.95 391.474H2417.8L2466.47 350.507H2585L2607.33 328.267H2642.26" stroke="url(#paint23_linear_337_272)"/>
<path d="M1876.14 339.972H1958.02L2002.11 382.11H2248.89L2276.95 403.179H2417.8L2466.47 362.212H2585L2607.33 339.972H2642.26" stroke="url(#paint24_linear_337_272)"/>
<path d="M1876.14 351.677H1958.02L2002.11 393.815H2248.89L2276.95 414.884H2417.8L2466.47 373.917H2585L2607.33 351.677H2642.26" stroke="url(#paint25_linear_337_272)"/>
<path d="M1876.14 375.087H1958.02L2002.11 417.225H2248.89L2276.95 438.293H2417.8L2466.47 397.326H2585L2607.33 375.087H2642.26" stroke="url(#paint26_linear_337_272)"/>
<path d="M1822.32 242.822H1921.95L1937.98 216.486H1992.37L2011.84 196.587H2049.06L2080.55 230.531H2281.53L2299.28 216.486H2332.49" stroke="url(#paint27_linear_337_272)"/>
<path d="M1833.77 266.231H1933.4L1949.43 239.895H2003.83L2023.29 219.997H2060.51L2092 253.941H2292.98L2310.73 239.895H2343.94" stroke="url(#paint28_linear_337_272)"/>
<path d="M2069.1 67.833H1969.47L1953.44 94.1691H1899.04L1879.57 114.067H1842.36L1810.86 80.1232H1609.89L1592.14 94.1691H1558.93" stroke="url(#paint29_linear_337_272)"/>
<path d="M1557.21 97.0954C1558.79 97.0954 1560.07 95.7853 1560.07 94.1691C1560.07 92.553 1558.79 91.2429 1557.21 91.2429C1555.63 91.2429 1554.35 92.553 1554.35 94.1691C1554.35 95.7853 1555.63 97.0954 1557.21 97.0954Z" fill="#0E559D"/>
<path d="M2333.06 219.997C2334.96 219.997 2336.5 218.425 2336.5 216.486C2336.5 214.546 2334.96 212.974 2333.06 212.974C2331.16 212.974 2329.63 214.546 2329.63 216.486C2329.63 218.425 2331.16 219.997 2333.06 219.997Z" fill="#0D526A"/>
<path d="M1832.62 270.328C1834.52 270.328 1836.06 268.756 1836.06 266.817C1836.06 264.877 1834.52 263.305 1832.62 263.305C1830.73 263.305 1829.19 264.877 1829.19 266.817C1829.19 268.756 1830.73 270.328 1832.62 270.328Z" fill="#0E559D"/>
<path d="M1821.17 246.918C1823.07 246.918 1824.61 245.346 1824.61 243.407C1824.61 241.468 1823.07 239.896 1821.17 239.896C1819.28 239.896 1817.74 241.468 1817.74 243.407C1817.74 245.346 1819.28 246.918 1821.17 246.918Z" fill="#0E559D"/>
<path d="M2071.96 71.3445C2073.86 71.3445 2075.4 69.7723 2075.4 67.833C2075.4 65.8937 2073.86 64.3215 2071.96 64.3215C2070.07 64.3215 2068.53 65.8937 2068.53 67.833C2068.53 69.7723 2070.07 71.3445 2071.96 71.3445Z" fill="#0D5270"/>
<path d="M2101.74 107.63H2483.65" stroke="url(#paint30_linear_337_272)" stroke-width="2.5"/>
<defs>
<linearGradient id="paint0_linear_337_272" x1="1162.02" y1="115.099" x2="1512.83" y2="500.983" gradientUnits="userSpaceOnUse">
<stop stop-opacity="0.33"/>
<stop offset="1" stop-color="#262626" stop-opacity="0"/>
</linearGradient>
<linearGradient id="paint1_linear_337_272" x1="1842.93" y1="146.256" x2="1552.85" y2="194.491" gradientUnits="userSpaceOnUse">
<stop stop-color="#093747"/>
<stop offset="1" stop-color="#339EC4"/>
</linearGradient>
<linearGradient id="paint2_linear_337_272" x1="1912" y1="131.625" x2="1509.6" y2="196.173" gradientUnits="userSpaceOnUse">
<stop stop-color="#093747"/>
<stop offset="1" stop-color="#339EC4"/>
</linearGradient>
<linearGradient id="paint3_linear_337_272" x1="2229.85" y1="107.63" x2="1861.06" y2="166.13" gradientUnits="userSpaceOnUse">
<stop stop-color="#0F617E"/>
<stop offset="1" stop-color="#0F4558"/>
</linearGradient>
<linearGradient id="paint4_linear_337_272" x1="2058.22" y1="163.813" x2="2006.4" y2="82.6038" gradientUnits="userSpaceOnUse">
<stop stop-color="#0D526A"/>
<stop offset="1" stop-color="#0F4D64"/>
</linearGradient>
<linearGradient id="paint5_linear_337_272" x1="2375.02" y1="107.045" x2="2343.4" y2="-29.674" gradientUnits="userSpaceOnUse">
<stop stop-color="#0D526A"/>
<stop offset="1" stop-color="#0B4357"/>
</linearGradient>
<linearGradient id="paint6_linear_337_272" x1="2070.82" y1="228.19" x2="1920.42" y2="52.7522" gradientUnits="userSpaceOnUse">
<stop stop-color="#0D526A"/>
<stop offset="1" stop-color="#339EC4"/>
</linearGradient>
<linearGradient id="paint7_linear_337_272" x1="-nan" y1="-nan" x2="-nan" y2="-nan" gradientUnits="userSpaceOnUse">
<stop stop-color="#116784"/>
<stop offset="1" stop-color="#0D526A"/>
</linearGradient>
<linearGradient id="paint8_linear_337_272" x1="2359.97" y1="329.438" x2="2288.98" y2="186.454" gradientUnits="userSpaceOnUse">
<stop stop-color="#27687F"/>
<stop offset="1" stop-color="#0D526A"/>
</linearGradient>
<linearGradient id="paint9_linear_337_272" x1="2265.36" y1="362.141" x2="2265.26" y2="358.958" gradientUnits="userSpaceOnUse">
<stop stop-color="#186B87"/>
<stop offset="1" stop-color="#1C5F76"/>
</linearGradient>
<linearGradient id="paint10_linear_337_272" x1="2482.6" y1="352.263" x2="2377.95" y2="112.733" gradientUnits="userSpaceOnUse">
<stop stop-color="#0D526A"/>
<stop offset="1" stop-color="#339EC4"/>
</linearGradient>
<linearGradient id="paint11_linear_337_272" x1="2045.09" y1="371.576" x2="1917.55" y2="208.202" gradientUnits="userSpaceOnUse">
<stop stop-color="#0D526A"/>
<stop offset="1" stop-color="#339EC4"/>
</linearGradient>
<linearGradient id="paint12_linear_337_272" x1="2356.19" y1="386.792" x2="2117.06" y2="106.01" gradientUnits="userSpaceOnUse">
<stop stop-color="#0D526A"/>
<stop offset="1" stop-color="#339EC4"/>
</linearGradient>
<linearGradient id="paint13_linear_337_272" x1="-nan" y1="-nan" x2="-nan" y2="-nan" gradientUnits="userSpaceOnUse">
<stop stop-color="#307891"/>
<stop offset="1" stop-color="#0E546C"/>
</linearGradient>
<linearGradient id="paint14_linear_337_272" x1="2509.99" y1="567.633" x2="2463.65" y2="485.609" gradientUnits="userSpaceOnUse">
<stop stop-color="#0D526A"/>
<stop offset="1" stop-color="#145A73"/>
</linearGradient>
<linearGradient id="paint15_linear_337_272" x1="2123.31" y1="448.243" x2="1942.51" y2="220.474" gradientUnits="userSpaceOnUse">
<stop stop-color="#0D526A"/>
<stop offset="1" stop-color="#339EC4"/>
</linearGradient>
<linearGradient id="paint16_linear_337_272" x1="2256.78" y1="541.882" x2="2136.04" y2="347.606" gradientUnits="userSpaceOnUse">
<stop stop-color="#0D526A"/>
<stop offset="1" stop-color="#0E559D"/>
</linearGradient>
<linearGradient id="paint17_linear_337_272" x1="2398" y1="640.203" x2="2357.69" y2="523.484" gradientUnits="userSpaceOnUse">
<stop stop-color="#157292"/>
<stop offset="1" stop-color="#0D526A"/>
</linearGradient>
<linearGradient id="paint18_linear_337_272" x1="2615.38" y1="268.572" x2="2588.11" y2="114.869" gradientUnits="userSpaceOnUse">
<stop stop-color="#0D526A"/>
<stop offset="1" stop-color="#0C6D90"/>
</linearGradient>
<linearGradient id="paint19_linear_337_272" x1="2638.28" y1="467.556" x2="2603.19" y2="316.349" gradientUnits="userSpaceOnUse">
<stop stop-color="#0D526A"/>
<stop offset="1" stop-color="#0E559D"/>
</linearGradient>
<linearGradient id="paint20_linear_337_272" x1="2491.33" y1="175.518" x2="2456.24" y2="39.5638" gradientUnits="userSpaceOnUse">
<stop stop-color="#0D526A"/>
<stop offset="1" stop-color="#0E559D"/>
</linearGradient>
<linearGradient id="paint21_linear_337_272" x1="2411.17" y1="526.666" x2="2376.08" y2="390.711" gradientUnits="userSpaceOnUse">
<stop stop-color="#0D526A"/>
<stop offset="1" stop-color="#0E559D"/>
</linearGradient>
<linearGradient id="paint22_linear_337_272" x1="2458.57" y1="126.358" x2="2401.08" y2="11.7795" gradientUnits="userSpaceOnUse">
<stop stop-color="#0D526A"/>
<stop offset="1" stop-color="#0E559D"/>
</linearGradient>
<linearGradient id="paint23_linear_337_272" x1="2641.36" y1="328.267" x2="2592.63" y2="171.295" gradientUnits="userSpaceOnUse">
<stop stop-color="#0D526A"/>
<stop offset="1" stop-color="#0E559D"/>
</linearGradient>
<linearGradient id="paint24_linear_337_272" x1="2641.36" y1="339.972" x2="2592.63" y2="183" gradientUnits="userSpaceOnUse">
<stop stop-color="#0D526A"/>
<stop offset="1" stop-color="#0E559D"/>
</linearGradient>
<linearGradient id="paint25_linear_337_272" x1="2641.36" y1="351.677" x2="2592.63" y2="194.705" gradientUnits="userSpaceOnUse">
<stop stop-color="#0D526A"/>
<stop offset="1" stop-color="#0E559D"/>
</linearGradient>
<linearGradient id="paint26_linear_337_272" x1="2641.36" y1="375.087" x2="2592.63" y2="218.114" gradientUnits="userSpaceOnUse">
<stop stop-color="#0D526A"/>
<stop offset="1" stop-color="#0E559D"/>
</linearGradient>
<linearGradient id="paint27_linear_337_272" x1="2331.89" y1="196.587" x2="2293.43" y2="83.8133" gradientUnits="userSpaceOnUse">
<stop stop-color="#0D526A"/>
<stop offset="1" stop-color="#0E559D"/>
</linearGradient>
<linearGradient id="paint28_linear_337_272" x1="2343.35" y1="219.997" x2="2304.89" y2="107.223" gradientUnits="userSpaceOnUse">
<stop stop-color="#0D526A"/>
<stop offset="1" stop-color="#0E559D"/>
</linearGradient>
<linearGradient id="paint29_linear_337_272" x1="2083.41" y1="78.3674" x2="2051.52" y2="-40.7191" gradientUnits="userSpaceOnUse">
<stop stop-color="#0D526A"/>
<stop offset="1" stop-color="#0E559D"/>
</linearGradient>
<linearGradient id="paint30_linear_337_272" x1="-nan" y1="-nan" x2="-nan" y2="-nan" gradientUnits="userSpaceOnUse">
<stop stop-color="#0D526A"/>
<stop offset="1" stop-color="#0F5770"/>
</linearGradient>
</defs>
</svg>
