<svg width="39" height="39" viewBox="0 0 39 39" fill="none" xmlns="http://www.w3.org/2000/svg">
<g id="Frame" clip-path="url(#clip0_337_237)">
<g id="SVGRepo_iconCarrier">
<g id="7935ec95c421cee6d86eb22ecd11b7e3">
<path id="Vector" d="M21.5662 9.30623C21.5662 9.70537 21.5662 11.0063 21.5662 12.8545H27.9207L27.2318 18.5192H21.5662C21.5662 27.2552 21.5662 38.9618 21.5662 38.9618H14.046C14.046 38.9618 14.046 27.4102 14.046 18.5192H10.1275V12.8545H14.046C14.046 10.6081 14.046 9.01069 14.046 8.56592C14.046 6.44682 13.8864 5.44135 14.7868 3.79924C15.6877 2.1572 18.2288 -0.0132421 22.6238 0.0390118C27.0199 0.09317 28.873 0.516076 28.873 0.516076L27.9207 6.55323C27.9207 6.55323 25.1136 5.812 23.7357 6.07617C22.3597 6.34041 21.5662 7.18805 21.5662 9.30623Z" fill="#F0F1F2" stroke="#F0F1F2"/>
</g>
</g>
</g>
<defs>
<clipPath id="clip0_337_237">
<rect width="39" height="39" fill="white" transform="translate(0.000244141)"/>
</clipPath>
</defs>
</svg>
