<svg width="36" height="36" viewBox="0 0 36 36" fill="none" xmlns="http://www.w3.org/2000/svg">
<g id="Frame" clip-path="url(#clip0_337_243)">
<g id="SVGRepo_iconCarrier">
<g id="Page-1">
<g id="Dribbble-Light-Preview">
<g id="icons">
<path id="linkedin-[#161]" fill-rule="evenodd" clip-rule="evenodd" d="M36.0002 36H28.8002V23.4018C28.8002 19.9458 27.2756 18.0176 24.5414 18.0176C21.566 18.0176 19.8002 20.0268 19.8002 23.4018V36H12.6002V12.6H19.8002V15.2314C19.8002 15.2314 22.0592 11.2676 27.1496 11.2676C32.2418 11.2676 36.0002 14.375 36.0002 20.8046V36ZM4.39585 8.85762C1.96765 8.85762 0.000244141 6.87413 0.000244141 4.42793C0.000244141 1.98353 1.96765 0 4.39585 0C6.82225 0 8.78964 1.98353 8.78964 4.42793C8.79144 6.87413 6.82225 8.85762 4.39585 8.85762ZM0.000244141 36H9.00024V12.6H0.000244141V36Z" fill="#F0F1F2"/>
</g>
</g>
</g>
</g>
</g>
<defs>
<clipPath id="clip0_337_243">
<rect width="36" height="36" fill="white" transform="translate(0.000244141)"/>
</clipPath>
</defs>
</svg>
