<svg width="45" height="45" viewBox="0 0 45 45" fill="none" xmlns="http://www.w3.org/2000/svg">
<g id="Frame">
<g id="SVGRepo_iconCarrier">
<path id="Vector" fill-rule="evenodd" clip-rule="evenodd" d="M22.5002 33.75C28.7134 33.75 33.7502 28.7132 33.7502 22.5C33.7502 16.2868 28.7134 11.25 22.5002 11.25C16.287 11.25 11.2502 16.2868 11.2502 22.5C11.2502 28.7132 16.287 33.75 22.5002 33.75ZM22.5002 30C26.6423 30 30.0002 26.6421 30.0002 22.5C30.0002 18.3579 26.6423 15 22.5002 15C18.3581 15 15.0002 18.3579 15.0002 22.5C15.0002 26.6421 18.3581 30 22.5002 30Z" fill="#F0F1F2" stroke="#F0F1F2"/>
<path id="Vector_2" d="M33.7502 9.375C32.7147 9.375 31.8752 10.2145 31.8752 11.25C31.8752 12.2855 32.7147 13.125 33.7502 13.125C34.7858 13.125 35.6252 12.2855 35.6252 11.25C35.6252 10.2145 34.7858 9.375 33.7502 9.375Z" fill="#F0F1F2" stroke="#F0F1F2"/>
<path id="Vector_3" fill-rule="evenodd" clip-rule="evenodd" d="M3.10142 8.01761C1.87524 10.4241 1.87524 13.5744 1.87524 19.875V25.125C1.87524 31.4256 1.87524 34.5759 3.10142 36.9823C4.17999 39.0992 5.90102 40.8203 8.01786 41.8988C10.4244 43.125 13.5747 43.125 19.8752 43.125H25.1252C31.4258 43.125 34.5762 43.125 36.9826 41.8988C39.0994 40.8203 40.8205 39.0992 41.899 36.9823C43.1252 34.5759 43.1252 31.4256 43.1252 25.125V19.875C43.1252 13.5744 43.1252 10.4241 41.899 8.01761C40.8205 5.90077 39.0994 4.17975 36.9826 3.10117C34.5762 1.875 31.4258 1.875 25.1252 1.875H19.8752C13.5747 1.875 10.4244 1.875 8.01786 3.10117C5.90102 4.17975 4.17999 5.90077 3.10142 8.01761ZM25.1252 5.625H19.8752C16.6631 5.625 14.4795 5.62792 12.7916 5.76581C11.1476 5.90014 10.3068 6.14361 9.72032 6.44244C8.3091 7.16151 7.16175 8.30886 6.44269 9.72008C6.14385 10.3066 5.90038 11.1473 5.76606 12.7914C5.62817 14.4792 5.62524 16.6628 5.62524 19.875V25.125C5.62524 28.3372 5.62817 30.5207 5.76606 32.2086C5.90038 33.8528 6.14385 34.6935 6.44269 35.28C7.16175 36.6911 8.3091 37.8384 9.72032 38.5575C10.3068 38.8564 11.1476 39.0999 12.7916 39.2342C14.4795 39.372 16.6631 39.375 19.8752 39.375H25.1252C28.3375 39.375 30.5209 39.372 32.2088 39.2342C33.853 39.0999 34.6937 38.8564 35.2802 38.5575C36.6914 37.8384 37.8387 36.6911 38.5577 35.28C38.8566 34.6935 39.1002 33.8528 39.2344 32.2086C39.3722 30.5207 39.3752 28.3372 39.3752 25.125V19.875C39.3752 16.6628 39.3722 14.4792 39.2344 12.7914C39.1002 11.1473 38.8566 10.3066 38.5577 9.72008C37.8387 8.30886 36.6914 7.16151 35.2802 6.44244C34.6937 6.14361 33.853 5.90014 32.2088 5.76581C30.5209 5.62792 28.3375 5.625 25.1252 5.625Z" fill="#F0F1F2" stroke="#F0F1F2"/>
</g>
</g>
</svg>
