<?xml version="1.0" encoding="UTF-8"?>
<svg version="1.1" xmlns="http://www.w3.org/2000/svg" width="234" height="51">
<path d="M0 0 C4.31612953 0.09235655 6.42597103 0.77051232 9.54296875 3.94140625 C12.56602781 6.59090653 16.27331797 8.14162266 19.859375 9.91015625 C22.51564803 11.60721958 23.35239516 12.44187902 24.25 15.4375 C24.2265625 18.06640625 24.2265625 18.06640625 23.875 21 C23.41226842 25.20571588 23.28255507 29.15199058 23.5 33.375 C23.5 36.95011827 23.43428912 38.14132106 21.5 41.25 C17.50223854 43.94080098 13.34588059 46.04805019 8.9921875 48.10546875 C6.13223485 49.41822218 6.13223485 49.41822218 3.25 51.4375 C-2.43830474 52.33565338 -5.07192541 51.55369543 -9.75 48.1875 C-11.00103516 47.23037109 -11.00103516 47.23037109 -12.27734375 46.25390625 C-14.5662478 44.57248384 -16.75008577 43.33057235 -19.3125 42.125 C-22.75 40.4375 -22.75 40.4375 -23.75 38.4375 C-24.07354067 34.3400007 -24.07447392 30.23368877 -24.125 26.125 C-24.16238281 24.98353516 -24.19976563 23.84207031 -24.23828125 22.66601562 C-24.32658415 14.27233481 -24.32658415 14.27233481 -21.61328125 10.34375 C-18.66428035 8.38043153 -15.77745913 6.73966429 -12.5625 5.25 C-1.40581567 0.0362104 -1.40581567 0.0362104 0 0 Z M1.25 14.4375 C1.25 14.7675 1.25 15.0975 1.25 15.4375 C2.9 15.4375 4.55 15.4375 6.25 15.4375 C6.25 15.1075 6.25 14.7775 6.25 14.4375 C4.6 14.4375 2.95 14.4375 1.25 14.4375 Z M-1.75 24.4375 C-1.75 25.4275 -1.75 26.4175 -1.75 27.4375 C-0.76 27.4375 0.23 27.4375 1.25 27.4375 C1.25 26.4475 1.25 25.4575 1.25 24.4375 C0.26 24.4375 -0.73 24.4375 -1.75 24.4375 Z " fill="#FEFEFE" transform="translate(23.75,-0.4375)"/>
<path d="M0 0 C1.65 0 3.3 0 5 0 C5.33 1.32 5.66 2.64 6 4 C6.66 2.68 7.32 1.36 8 0 C9.65 0.33 11.3 0.66 13 1 C13.33 2.32 13.66 3.64 14 5 C14.33 4.67 14.66 4.34 15 4 C17.33294775 3.95758277 19.66702567 3.95907063 22 4 C22.66 4 23.32 4 24 4 C25.68609375 4.05220703 25.68609375 4.05220703 27.40625 4.10546875 C28.77082146 4.13339858 30.13540552 4.16071824 31.5 4.1875 C32.53447266 4.22520508 32.53447266 4.22520508 33.58984375 4.26367188 C35.830702 4.32992145 35.830702 4.32992145 39 4 C39.66 3.01 40.32 2.02 41 1 C41.99 1 42.98 1 44 1 C44 1.99 44 2.98 44 4 C45.98 4 47.96 4 50 4 C50.495 6.475 50.495 6.475 51 9 C51.33 7.35 51.66 5.7 52 4 C60.25 4 68.5 4 77 4 C78.49106457 6.98212913 78.11941467 9.71609658 78 13 C77 14 77 14 73.5625 14.25 C72.386875 14.1675 71.21125 14.085 70 14 C69.01 12.515 69.01 12.515 68 11 C67.34 11.99 66.68 12.98 66 14 C65.4225 13.814375 64.845 13.62875 64.25 13.4375 C61.79307475 12.95976454 60.35602466 13.24270636 58 14 C57.34 12.35 56.68 10.7 56 9 C55.67 10.65 55.34 12.3 55 14 C52.87527424 14.05386629 50.75016348 14.09273071 48.625 14.125 C46.84996094 14.15980469 46.84996094 14.15980469 45.0390625 14.1953125 C42 14 42 14 40 12 C39.67 12.66 39.34 13.32 39 14 C32.25 14.125 32.25 14.125 30 13 C30 11.02 30 9.04 30 7 C29.34 7 28.68 7 28 7 C28 9.31 28 11.62 28 14 C26.68 14 25.36 14 24 14 C23.67 13.34 23.34 12.68 23 12 C22.34 12.66 21.68 13.32 21 14 C18.66253478 13.69699525 16.32914823 13.36141955 14 13 C12.65667272 13.29044914 11.31774196 13.60955794 10 14 C9.34 13.67 8.68 13.34 8 13 C4.77240096 12.83012637 2.10530811 13.16751315 -1 14 C-1.027193 12.41676312 -1.04648306 10.83338938 -1.0625 9.25 C-1.07410156 8.36828125 -1.08570313 7.4865625 -1.09765625 6.578125 C-1.00826198 4.2181162 -0.66912821 2.25501476 0 0 Z M45 6 C44.67 7.32 44.34 8.64 44 10 C44.66 10 45.32 10 46 10 C45.67 8.68 45.34 7.36 45 6 Z M69 6 C68.67 7.32 68.34 8.64 68 10 C68.66 8.68 69.32 7.36 70 6 C69.67 6 69.34 6 69 6 Z M18 7 C18 7.99 18 8.98 18 10 C18.66 10 19.32 10 20 10 C20 9.01 20 8.02 20 7 C19.34 7 18.68 7 18 7 Z " fill="#FDFDFD" transform="translate(156,11)"/>
<path d="M0 0 C1.32 0.33 2.64 0.66 4 1 C4 3.97 4 6.94 4 10 C4.66 9.67 5.32 9.34 6 9 C6.46651207 6.87423218 6.46651207 6.87423218 6.625 4.4375 C6.69976562 3.61121094 6.77453125 2.78492188 6.8515625 1.93359375 C6.90054688 1.29550781 6.94953125 0.65742188 7 0 C8.32 0 9.64 0 11 0 C11 1.32 11 2.64 11 4 C11.95712891 3.98259766 11.95712891 3.98259766 12.93359375 3.96484375 C13.75988281 3.95582031 14.58617188 3.94679688 15.4375 3.9375 C16.26121094 3.92589844 17.08492187 3.91429687 17.93359375 3.90234375 C20 4 20 4 21 5 C21.07179964 6.51928038 21.08392007 8.04167482 21.0625 9.5625 C21.05347656 10.38878906 21.04445313 11.21507812 21.03515625 12.06640625 C21.02355469 12.70449219 21.01195313 13.34257812 21 14 C20.2575 13.814375 19.515 13.62875 18.75 13.4375 C16.07770627 12.82527572 16.07770627 12.82527572 13.8125 13.5625 C13.214375 13.706875 12.61625 13.85125 12 14 C11.34 13.34 10.68 12.68 10 12 C9.01 12.66 8.02 13.32 7 14 C1.44444444 13.44444444 1.44444444 13.44444444 0 12 C-0.07244053 9.98035801 -0.08377188 7.95832876 -0.0625 5.9375 C-0.05347656 4.83277344 -0.04445312 3.72804688 -0.03515625 2.58984375 C-0.02355469 1.73519531 -0.01195312 0.88054688 0 0 Z " fill="#FEFEFE" transform="translate(53,11)"/>
<path d="M0 0 C1.32 0.33 2.64 0.66 4 1 C4 1.66 4 2.32 4 3 C6.475 3.99 6.475 3.99 9 5 C9.33 4.67 9.66 4.34 10 4 C11.83115883 3.90148829 13.66619933 3.87027371 15.5 3.875 C16.5003125 3.87242188 17.500625 3.86984375 18.53125 3.8671875 C21 4 21 4 22 5 C22.1328125 6.8125 22.1328125 6.8125 22.125 9 C22.12886719 10.0828125 22.12886719 10.0828125 22.1328125 11.1875 C22 13 22 13 21 14 C14.4 13.4 14.4 13.4 12 11 C11.01 12.485 11.01 12.485 10 14 C8.0625 13.6875 8.0625 13.6875 6 13 C5.67 12.01 5.34 11.02 5 10 C4.34 11.32 3.68 12.64 3 14 C2.01 14 1.02 14 0 14 C0 9.38 0 4.76 0 0 Z " fill="#FFFFFF" transform="translate(75,11)"/>
<path d="M0 0 C4 1 4 1 5 2 C7.05396726 1.59070014 7.05396726 1.59070014 9 1 C9 1.99 9 2.98 9 4 C12.96 4 16.92 4 21 4 C17.25 13.625 17.25 13.625 15 17 C13.68 17 12.36 17 11 17 C11.226875 15.906875 11.45375 14.81375 11.6875 13.6875 C12.40146383 10.09468727 12.40146383 10.09468727 10.5625 8.0625 C10.046875 7.711875 9.53125 7.36125 9 7 C9 7.99 9 8.98 9 10 C9.66 10 10.32 10 11 10 C10.67 11.32 10.34 12.64 10 14 C9.0925 13.814375 8.185 13.62875 7.25 13.4375 C3.8491925 12.77576292 3.8491925 12.77576292 0 14 C0 9.38 0 4.76 0 0 Z " fill="#FFFFFF" transform="translate(112,11)"/>
<path d="M0 0 C3.375 -0.1875 3.375 -0.1875 7 0 C7.66 0.99 8.32 1.98 9 3 C11.86370649 3.32707676 11.86370649 3.32707676 15.0625 3.125 C17.04084691 3.05442877 19.02040337 3.00583092 21 3 C22 4 22 4 22.09765625 6.06640625 C22.08605469 6.89011719 22.07445312 7.71382812 22.0625 8.5625 C22.05347656 9.38878906 22.04445312 10.21507812 22.03515625 11.06640625 C22.02355469 11.70449219 22.01195312 12.34257813 22 13 C19.69 13 17.38 13 15 13 C14.375 11.125 14.375 11.125 14 9 C14.66 8.34 15.32 7.68 16 7 C15.01 7 14.02 7 13 7 C12.67 8.98 12.34 10.96 12 13 C11.360625 12.814375 10.72125 12.62875 10.0625 12.4375 C9.0415625 12.2209375 9.0415625 12.2209375 8 12 C7.67 12.33 7.34 12.66 7 13 C4.66702567 13.04092937 2.33294775 13.04241723 0 13 C0 8.71 0 4.42 0 0 Z M3 2 C3 2.99 3 3.98 3 5 C3.99 4.67 4.98 4.34 6 4 C5.67 3.34 5.34 2.68 5 2 C4.34 2 3.68 2 3 2 Z M3 8 C3.33 8.99 3.66 9.98 4 11 C4.66 10.67 5.32 10.34 6 10 C6 9.34 6 8.68 6 8 C5.01 8 4.02 8 3 8 Z M17 9 C17.66 9.66 18.32 10.32 19 11 C19 10.34 19 9.68 19 9 C18.34 9 17.68 9 17 9 Z " fill="#FEFEFE" transform="translate(148,28)"/>
<path d="M0 0 C0 2.64 0 5.28 0 8 C-0.66 8 -1.32 8 -2 8 C-2 10.31 -2 12.62 -2 15 C-2.61875 14.835 -3.2375 14.67 -3.875 14.5 C-6.51660204 13.87844658 -7.7670279 13.92642986 -10.375 14.75 C-13 15 -13 15 -15.375 13.375 C-17 11 -17 11 -16.8125 8.3125 C-16 6 -16 6 -15 5 C-12.32941149 4.85884839 -9.67567762 4.95752893 -7 5 C-6.71125 4.360625 -6.4225 3.72125 -6.125 3.0625 C-4.45129782 -0.005954 -3.47574769 0 0 0 Z M-12 8 C-12.33 8.99 -12.66 9.98 -13 11 C-12.34 11 -11.68 11 -11 11 C-11.33 10.01 -11.66 9.02 -12 8 Z " fill="#FEFEFE" transform="translate(152,10)"/>
<path d="M0 0 C4.29 0 8.58 0 13 0 C13 2.97 13 5.94 13 9 C11.02 9.33 9.04 9.66 7 10 C6 5.25 6 5.25 6 3 C5.34 3 4.68 3 4 3 C4 4.98 4 6.96 4 9 C2.68 9.33 1.36 9.66 0 10 C0 6.7 0 3.4 0 0 Z " fill="#FFFFFF" transform="translate(98,15)"/>
<path d="M0 0 C0.66 0 1.32 0 2 0 C2 0.66 2 1.32 2 2 C2.804375 1.979375 3.60875 1.95875 4.4375 1.9375 C7 2 7 2 8 3 C8.04080783 4.99958364 8.04254356 7.00045254 8 9 C8.66 8.67 9.32 8.34 10 8 C10.65772428 4.97065509 10.65772428 4.97065509 11 2 C11.66 2 12.32 2 13 2 C13 5.3 13 8.6 13 12 C8.71 12 4.42 12 0 12 C0 9.69 0 7.38 0 5 C-0.66 5 -1.32 5 -2 5 C-2 4.01 -2 3.02 -2 2 C-1.34 2 -0.68 2 0 2 C0 1.34 0 0.68 0 0 Z M2 5 C2.34444881 7.47266765 2.34444881 7.47266765 3 10 C3.66 10.33 4.32 10.66 5 11 C5 8.69 5 6.38 5 4 C3.7763932 3.9254644 3.7763932 3.9254644 2 5 Z " fill="#FCFCFC" transform="translate(96,29)"/>
<path d="M0 0 C0.99 0 1.98 0 3 0 C3 4.62 3 9.24 3 14 C0.36 14 -2.28 14 -5 14 C-6.38125018 11.23749964 -6.19079306 9.05268901 -6 6 C-5.34 5.34 -4.68 4.68 -4 4 C-2.68 4 -1.36 4 0 4 C0 2.68 0 1.36 0 0 Z M-3 7 C-2.67 8.65 -2.34 10.3 -2 12 C-1.34 11.67 -0.68 11.34 0 11 C0 9.68 0 8.36 0 7 C-0.99 7 -1.98 7 -3 7 Z " fill="#FFFFFF" transform="translate(116,27)"/>
<path d="M0 0 C2.64 0 5.28 0 8 0 C8 0.66 8 1.32 8 2 C6.35 2 4.7 2 3 2 C3 2.99 3 3.98 3 5 C4.32 5 5.64 5 7 5 C7 5.99 7 6.98 7 8 C5.68 8 4.36 8 3 8 C3 8.66 3 9.32 3 10 C4.65 10 6.3 10 8 10 C8 10.99 8 11.98 8 13 C5.36 13 2.72 13 0 13 C0 8.71 0 4.42 0 0 Z " fill="#FFFFFF" transform="translate(66,28)"/>
<path d="M0 0 C2.64 0 5.28 0 8 0 C8 0.66 8 1.32 8 2 C6.35 2 4.7 2 3 2 C3 2.99 3 3.98 3 5 C4.32 5 5.64 5 7 5 C7 5.99 7 6.98 7 8 C5.68 8 4.36 8 3 8 C3 8.66 3 9.32 3 10 C4.65 10 6.3 10 8 10 C8 10.99 8 11.98 8 13 C5.36 13 2.72 13 0 13 C0 8.71 0 4.42 0 0 Z " fill="#FFFFFF" transform="translate(57,28)"/>
<path d="M0 0 C1.4540625 0.0309375 1.4540625 0.0309375 2.9375 0.0625 C2.9375 1.0525 2.9375 2.0425 2.9375 3.0625 C1.6175 3.3925 0.2975 3.7225 -1.0625 4.0625 C-0.423125 4.31 0.21625 4.5575 0.875 4.8125 C2.9375 6.0625 2.9375 6.0625 3.8125 8 C3.9375 10.0625 3.9375 10.0625 1.9375 13.0625 C-1.6875 13.25 -1.6875 13.25 -5.0625 13.0625 C-5.0625 12.0725 -5.0625 11.0825 -5.0625 10.0625 C-3.7425 10.0625 -2.4225 10.0625 -1.0625 10.0625 C-0.7325 9.4025 -0.4025 8.7425 -0.0625 8.0625 C-2.5375 7.0725 -2.5375 7.0725 -5.0625 6.0625 C-3.98897059 0.08140756 -3.98897059 0.08140756 0 0 Z " fill="#FFFFFF" transform="translate(91.0625,27.9375)"/>
<path d="M0 0 C3.375 -0.1875 3.375 -0.1875 7 0 C9.4294516 3.6441774 9.16179575 5.71241272 9 10 C7.68 10 6.36 10 5 10 C5 7.69 5 5.38 5 3 C4.34 3 3.68 3 3 3 C3 5.31 3 7.62 3 10 C2.01 10 1.02 10 0 10 C0 6.7 0 3.4 0 0 Z " fill="#FFFFFF" transform="translate(129,31)"/>
<path d="M0 0 C0.99 0 1.98 0 3 0 C3 1.32 3 2.64 3 4 C4.65 4.33 6.3 4.66 8 5 C8 7.97 8 10.94 8 14 C7.34 14 6.68 14 6 14 C5.87625 13.030625 5.7525 12.06125 5.625 11.0625 C5.315625 9.5465625 5.315625 9.5465625 5 8 C4.34 7.67 3.68 7.34 3 7 C3 9.31 3 11.62 3 14 C2.01 14 1.02 14 0 14 C0 9.38 0 4.76 0 0 Z " fill="#FFFFFF" transform="translate(189,27)"/>
<path d="M0 0 C3.0625 0.125 3.0625 0.125 5.0625 1.125 C5.0625 4.095 5.0625 7.065 5.0625 10.125 C4.0725 10.125 3.0825 10.125 2.0625 10.125 C2.0625 7.815 2.0625 5.505 2.0625 3.125 C1.0725 3.62 1.0725 3.62 0.0625 4.125 C-0.59522428 7.15434491 -0.59522428 7.15434491 -0.9375 10.125 C-1.9275 10.125 -2.9175 10.125 -3.9375 10.125 C-3.96439216 8.64593108 -3.98384621 7.16672517 -4 5.6875 C-4.01160156 4.86378906 -4.02320313 4.04007813 -4.03515625 3.19140625 C-3.87928644 -0.10679899 -3.35249348 0.1426593 0 0 Z " fill="#FFFFFF" transform="translate(174.9375,30.875)"/>
<path d="M0 0 C2.31 0 4.62 0 7 0 C7 0.66 7 1.32 7 2 C5.35 2 3.7 2 2 2 C2 2.99 2 3.98 2 5 C3.65 5 5.3 5 7 5 C7 5.99 7 6.98 7 8 C5.35 8 3.7 8 2 8 C2 8.66 2 9.32 2 10 C3.65 10 5.3 10 7 10 C7 10.99 7 11.98 7 13 C4.69 13 2.38 13 0 13 C0 8.71 0 4.42 0 0 Z " fill="#FCFCFC" transform="translate(75,28)"/>
<path d="M0 0 C2.625 0.375 2.625 0.375 5 1 C5.33 2.65 5.66 4.3 6 6 C5.01 6.495 5.01 6.495 4 7 C4.66 7.33 5.32 7.66 6 8 C6 8.66 6 9.32 6 10 C3.66705225 10.04241723 1.33297433 10.04092937 -1 10 C-2 9 -2 9 -2.1875 5.5625 C-2 2 -2 2 0 0 Z " fill="#FFFFFF" transform="translate(122,31)"/>
<path d="M0 0 C0.99 0 1.98 0 3 0 C3 0.66 3 1.32 3 2 C3.66 2 4.32 2 5 2 C5 2.99 5 3.98 5 5 C4.34 5 3.68 5 3 5 C3 6.65 3 8.3 3 10 C3.66 10 4.32 10 5 10 C5 10.66 5 11.32 5 12 C3.35 11.67 1.7 11.34 0 11 C-0.19491452 9.54263913 -0.38069358 8.08405407 -0.5625 6.625 C-0.66691406 5.81289063 -0.77132812 5.00078125 -0.87890625 4.1640625 C-1 2 -1 2 0 0 Z " fill="#FAFAFA" transform="translate(139,29)"/>
<path d="M0 0 C0.78375 0.04125 1.5675 0.0825 2.375 0.125 C2.375 1.115 2.375 2.105 2.375 3.125 C1.055 3.125 -0.265 3.125 -1.625 3.125 C-1.295 4.445 -0.965 5.765 -0.625 7.125 C0.365 7.125 1.355 7.125 2.375 7.125 C2.375 8.115 2.375 9.105 2.375 10.125 C0.37545254 10.16754356 -1.62541636 10.16580783 -3.625 10.125 C-4.625 9.125 -4.625 9.125 -4.8125 5.6875 C-4.59380609 1.53231566 -4.30444478 0.20497356 0 0 Z " fill="#FFFFFF" transform="translate(185.625,30.875)"/>
<path d="M0 0 C0.99 0 1.98 0 3 0 C3 4.29 3 8.58 3 13 C2.01 13 1.02 13 0 13 C0 8.71 0 4.42 0 0 Z " fill="#FFFFFF" transform="translate(53,28)"/>
</svg>
