<svg width="46" height="46" viewBox="0 0 46 46" fill="none" xmlns="http://www.w3.org/2000/svg">
<g id="Frame" clip-path="url(#clip0_337_251)">
<g id="SVGRepo_iconCarrier">
<g id="Page-1">
<g id="Dribbble-Light-Preview">
<g id="icons">
<path id="youtube-[#168]" fill-rule="evenodd" clip-rule="evenodd" d="M18.3737 28.948V16.0408C22.9557 18.1969 26.5045 20.2797 30.7017 22.5253C27.2399 24.4451 22.9557 26.5992 18.3737 28.948ZM43.9096 9.62146C43.1192 8.58011 41.772 7.76951 40.3378 7.50114C36.1223 6.70063 9.82351 6.69835 5.61029 7.50114C4.46019 7.71674 3.43607 8.23789 2.55631 9.04758C-1.15059 12.4881 0.0109764 30.9388 0.904483 33.9276C1.28021 35.2212 1.76593 36.1542 2.37764 36.7666C3.16575 37.5763 4.24482 38.1338 5.48427 38.3838C8.95519 39.1018 26.8367 39.5032 40.2645 38.4916C41.5017 38.276 42.5968 37.7006 43.4605 36.8565C46.8879 33.4296 46.6542 13.9428 43.9096 9.62146Z" fill="#F0F1F2"/>
</g>
</g>
</g>
</g>
</g>
<defs>
<clipPath id="clip0_337_251">
<rect width="46" height="46" fill="white" transform="translate(0.000244141)"/>
</clipPath>
</defs>
</svg>
